<svg xmlns="http://www.w3.org/2000/svg" xmlns:xlink="http://www.w3.org/1999/xlink" width="800" zoomAndPan="magnify" viewBox="0 0 600 74.999997" height="100" preserveAspectRatio="xMidYMid meet" version="1.0"><defs><g/></defs><g fill="#ffffff" fill-opacity="1"><g transform="translate(0.421887, 61.405203)"><g><path d="M 11.84375 -47.359375 L 40.265625 -47.359375 C 41.992188 -47.359375 43.578125 -46.929688 45.015625 -46.078125 C 46.460938 -45.234375 47.609375 -44.09375 48.453125 -42.65625 C 49.304688 -41.21875 49.734375 -39.628906 49.734375 -37.890625 L 49.734375 0 L 40.265625 0 L 40.265625 -18.9375 L 11.84375 -18.9375 L 11.84375 0 L 2.375 0 L 2.375 -37.890625 C 2.375 -39.628906 2.796875 -41.21875 3.640625 -42.65625 C 4.484375 -44.09375 5.625 -45.234375 7.0625 -46.078125 C 8.507812 -46.929688 10.101562 -47.359375 11.84375 -47.359375 Z M 11.84375 -37.890625 L 11.84375 -28.421875 L 40.265625 -28.421875 L 40.265625 -37.890625 Z M 11.84375 -37.890625 "/></g></g></g><g fill="#ffffff" fill-opacity="1"><g transform="translate(52.520653, 61.405203)"><g><path d="M 11.84375 0 L 2.375 0 L 2.375 -42.625 C 2.375 -43.925781 2.835938 -45.039062 3.765625 -45.96875 C 4.691406 -46.894531 5.804688 -47.359375 7.109375 -47.359375 C 8.410156 -47.359375 9.535156 -46.882812 10.484375 -45.9375 L 40.265625 -16.15625 L 40.265625 -47.359375 L 49.734375 -47.359375 L 49.734375 -4.734375 C 49.734375 -3.429688 49.269531 -2.316406 48.34375 -1.390625 C 47.414062 -0.460938 46.300781 0 45 0 C 43.695312 0 42.570312 -0.472656 41.625 -1.421875 L 11.84375 -31.203125 Z M 11.84375 0 "/></g></g></g><g fill="#ffffff" fill-opacity="1"><g transform="translate(104.619419, 61.405203)"><g><path d="M 49.734375 -9.46875 L 49.734375 0 L 7.109375 0 C 5.804688 0 4.691406 -0.460938 3.765625 -1.390625 C 2.835938 -2.316406 2.375 -3.429688 2.375 -4.734375 C 2.375 -6.035156 2.84375 -7.160156 3.78125 -8.109375 L 33.5625 -37.890625 L 2.375 -37.890625 L 2.375 -47.359375 L 45 -47.359375 C 46.300781 -47.359375 47.414062 -46.894531 48.34375 -45.96875 C 49.269531 -45.039062 49.734375 -43.925781 49.734375 -42.625 C 49.734375 -41.320312 49.257812 -40.195312 48.3125 -39.25 L 18.53125 -9.46875 Z M 49.734375 -9.46875 "/></g></g></g><g fill="#ffffff" fill-opacity="1"><g transform="translate(156.718185, 61.405203)"><g><path d="M 11.84375 -47.359375 L 40.265625 -47.359375 C 41.992188 -47.359375 43.578125 -46.929688 45.015625 -46.078125 C 46.460938 -45.234375 47.609375 -44.09375 48.453125 -42.65625 C 49.304688 -41.21875 49.734375 -39.628906 49.734375 -37.890625 L 49.734375 0 L 40.265625 0 L 40.265625 -18.9375 L 11.84375 -18.9375 L 11.84375 0 L 2.375 0 L 2.375 -37.890625 C 2.375 -39.628906 2.796875 -41.21875 3.640625 -42.65625 C 4.484375 -44.09375 5.625 -45.234375 7.0625 -46.078125 C 8.507812 -46.929688 10.101562 -47.359375 11.84375 -47.359375 Z M 11.84375 -37.890625 L 11.84375 -28.421875 L 40.265625 -28.421875 L 40.265625 -37.890625 Z M 11.84375 -37.890625 "/></g></g></g><g fill="#ffffff" fill-opacity="1"><g transform="translate(208.816951, 61.405203)"><g/></g></g><g fill="#ffffff" fill-opacity="1"><g transform="translate(234.866334, 61.405203)"><g><path d="M 49.734375 -47.359375 L 49.734375 -37.890625 L 30.78125 -37.890625 L 30.78125 0 L 21.3125 0 L 21.3125 -37.890625 L 2.375 -37.890625 L 2.375 -47.359375 Z M 49.734375 -47.359375 "/></g></g></g><g fill="#ffffff" fill-opacity="1"><g transform="translate(286.9651, 61.405203)"><g><path d="M 11.84375 -47.359375 L 40.265625 -47.359375 C 41.992188 -47.359375 43.578125 -46.929688 45.015625 -46.078125 C 46.460938 -45.234375 47.609375 -44.09375 48.453125 -42.65625 C 49.304688 -41.21875 49.734375 -39.628906 49.734375 -37.890625 L 49.734375 0 L 40.265625 0 L 40.265625 -18.9375 L 11.84375 -18.9375 L 11.84375 0 L 2.375 0 L 2.375 -37.890625 C 2.375 -39.628906 2.796875 -41.21875 3.640625 -42.65625 C 4.484375 -44.09375 5.625 -45.234375 7.0625 -46.078125 C 8.507812 -46.929688 10.101562 -47.359375 11.84375 -47.359375 Z M 11.84375 -37.890625 L 11.84375 -28.421875 L 40.265625 -28.421875 L 40.265625 -37.890625 Z M 11.84375 -37.890625 "/></g></g></g><g fill="#ffffff" fill-opacity="1"><g transform="translate(339.063866, 61.405203)"><g><path d="M 11.84375 -47.359375 L 40.265625 -47.359375 C 41.992188 -47.359375 43.578125 -46.929688 45.015625 -46.078125 C 46.460938 -45.234375 47.609375 -44.09375 48.453125 -42.65625 C 49.304688 -41.21875 49.734375 -39.628906 49.734375 -37.890625 L 49.734375 0 L 40.265625 0 L 40.265625 -37.890625 L 30.78125 -37.890625 L 30.78125 0 L 21.3125 0 L 21.3125 -37.890625 L 11.84375 -37.890625 L 11.84375 0 L 2.375 0 L 2.375 -37.890625 C 2.375 -39.628906 2.796875 -41.21875 3.640625 -42.65625 C 4.484375 -44.09375 5.625 -45.234375 7.0625 -46.078125 C 8.507812 -46.929688 10.101562 -47.359375 11.84375 -47.359375 Z M 11.84375 -47.359375 "/></g></g></g><g fill="#ffffff" fill-opacity="1"><g transform="translate(391.162608, 61.405203)"><g><path d="M 26.046875 0 C 23.921875 0 21.945312 -0.75 20.125 -2.25 L 4.140625 -15.984375 C 2.960938 -17.046875 2.375 -18.3125 2.375 -19.78125 L 2.375 -47.359375 L 11.84375 -47.359375 L 11.84375 -21.90625 L 26.046875 -9.65625 L 40.265625 -21.90625 L 40.265625 -47.359375 L 49.734375 -47.359375 L 49.671875 -19.78125 C 49.671875 -18.28125 49.097656 -17.015625 47.953125 -15.984375 L 31.96875 -2.25 C 30.226562 -0.75 28.253906 0 26.046875 0 Z M 26.046875 0 "/></g></g></g><g fill="#ffffff" fill-opacity="1"><g transform="translate(443.261374, 61.405203)"><g><path d="M 49.734375 -47.359375 L 49.734375 -37.890625 L 11.84375 -37.890625 L 11.84375 -28.421875 L 49.734375 -28.421875 L 49.734375 -18.9375 L 11.84375 -18.9375 L 11.84375 -9.46875 L 49.734375 -9.46875 L 49.734375 0 L 11.84375 0 C 10.101562 0 8.507812 -0.421875 7.0625 -1.265625 C 5.625 -2.117188 4.484375 -3.265625 3.640625 -4.703125 C 2.796875 -6.148438 2.375 -7.738281 2.375 -9.46875 L 2.375 -37.890625 C 2.375 -39.628906 2.796875 -41.21875 3.640625 -42.65625 C 4.484375 -44.09375 5.625 -45.234375 7.0625 -46.078125 C 8.507812 -46.929688 10.101562 -47.359375 11.84375 -47.359375 Z M 49.734375 -47.359375 "/></g></g></g><g fill="#ffffff" fill-opacity="1"><g transform="translate(495.36014, 61.405203)"><g><path d="M 49.734375 -47.359375 L 49.734375 -37.890625 L 11.84375 -37.890625 L 11.84375 -28.421875 L 49.734375 -28.421875 L 49.734375 -18.9375 L 11.84375 -18.9375 L 11.84375 -9.46875 L 49.734375 -9.46875 L 49.734375 0 L 11.84375 0 C 10.101562 0 8.507812 -0.421875 7.0625 -1.265625 C 5.625 -2.117188 4.484375 -3.265625 3.640625 -4.703125 C 2.796875 -6.148438 2.375 -7.738281 2.375 -9.46875 L 2.375 -37.890625 C 2.375 -39.628906 2.796875 -41.21875 3.640625 -42.65625 C 4.484375 -44.09375 5.625 -45.234375 7.0625 -46.078125 C 8.507812 -46.929688 10.101562 -47.359375 11.84375 -47.359375 Z M 49.734375 -47.359375 "/></g></g></g><g fill="#ffffff" fill-opacity="1"><g transform="translate(547.458906, 61.405203)"><g><path d="M 49.734375 0 L 11.84375 0 C 10.101562 0 8.507812 -0.421875 7.0625 -1.265625 C 5.625 -2.117188 4.484375 -3.265625 3.640625 -4.703125 C 2.796875 -6.148438 2.375 -7.738281 2.375 -9.46875 L 2.375 -47.359375 L 11.84375 -47.359375 L 11.84375 -9.46875 L 49.734375 -9.46875 Z M 49.734375 0 "/></g></g></g></svg>